<svg width="27" height="27" viewBox="0 0 27 27" fill="none" xmlns="http://www.w3.org/2000/svg">
<g clip-path="url(#clip0_8_145)">
<path fill-rule="evenodd" clip-rule="evenodd" d="M1.6875 13.5C1.6875 16.6329 2.93203 19.6374 5.1473 21.8527C7.36257 24.068 10.3671 25.3125 13.5 25.3125C16.6329 25.3125 19.6374 24.068 21.8527 21.8527C24.068 19.6374 25.3125 16.6329 25.3125 13.5C25.3125 10.3671 24.068 7.36257 21.8527 5.1473C19.6374 2.93203 16.6329 1.6875 13.5 1.6875C10.3671 1.6875 7.36257 2.93203 5.1473 5.1473C2.93203 7.36257 1.6875 10.3671 1.6875 13.5ZM27 13.5C27 17.0804 25.5777 20.5142 23.0459 23.0459C20.5142 25.5777 17.0804 27 13.5 27C9.91958 27 6.4858 25.5777 3.95406 23.0459C1.42232 20.5142 0 17.0804 0 13.5C0 9.91958 1.42232 6.4858 3.95406 3.95406C6.4858 1.42232 9.91958 0 13.5 0C17.0804 0 20.5142 1.42232 23.0459 3.95406C25.5777 6.4858 27 9.91958 27 13.5ZM7.59375 12.6562C7.36997 12.6562 7.15536 12.7451 6.99713 12.9034C6.83889 13.0616 6.75 13.2762 6.75 13.5C6.75 13.7238 6.83889 13.9384 6.99713 14.0966C7.15536 14.2549 7.36997 14.3438 7.59375 14.3438H17.3694L13.7464 17.9651C13.6679 18.0436 13.6057 18.1367 13.5632 18.2392C13.5208 18.3417 13.4989 18.4516 13.4989 18.5625C13.4989 18.6734 13.5208 18.7833 13.5632 18.8858C13.6057 18.9883 13.6679 19.0814 13.7464 19.1599C13.8248 19.2383 13.918 19.3006 14.0205 19.343C14.123 19.3855 14.2328 19.4073 14.3438 19.4073C14.4547 19.4073 14.5645 19.3855 14.667 19.343C14.7695 19.3006 14.8627 19.2383 14.9411 19.1599L20.0036 14.0974C20.0822 14.019 20.1445 13.9259 20.1871 13.8234C20.2296 13.7209 20.2515 13.611 20.2515 13.5C20.2515 13.389 20.2296 13.2791 20.1871 13.1766C20.1445 13.0741 20.0822 12.981 20.0036 12.9026L14.9411 7.84013C14.8627 7.76168 14.7695 7.69945 14.667 7.65699C14.5645 7.61454 14.4547 7.59268 14.3438 7.59268C14.2328 7.59268 14.123 7.61454 14.0205 7.65699C13.918 7.69945 13.8248 7.76168 13.7464 7.84013C13.6679 7.91857 13.6057 8.0117 13.5632 8.1142C13.5208 8.2167 13.4989 8.32656 13.4989 8.4375C13.4989 8.54844 13.5208 8.6583 13.5632 8.7608C13.6057 8.8633 13.6679 8.95643 13.7464 9.03487L17.3694 12.6562H7.59375Z" fill="#F5F5F5"/>
</g>
<defs>
<clipPath id="clip0_8_145">
<rect width="27" height="27" fill="white"/>
</clipPath>
</defs>
</svg>
