<svg width="24" height="24" viewBox="0 0 24 24" fill="none" xmlns="http://www.w3.org/2000/svg">
<path d="M21.661 17.8625C21.3413 18.0301 21.0115 18.1777 20.6735 18.3045C19.5971 18.707 18.4571 18.9123 17.3079 18.9105C12.8715 18.9105 9.00697 15.8587 9.00697 11.9427C9.01274 11.4178 9.15849 10.904 9.42919 10.4543C9.69989 10.0045 10.0857 9.63521 10.5468 9.3844C6.5348 9.5526 5.50342 13.7344 5.50342 16.1841C5.50342 23.1097 11.8868 23.8126 13.2622 23.8126C14.1217 23.779 14.9734 23.6354 15.7964 23.3852C15.8374 23.3715 15.8784 23.3577 15.9192 23.3437C18.5022 22.45 20.7038 20.7035 22.1619 18.3918C22.2059 18.3211 22.2252 18.2378 22.2168 18.155C22.2085 18.0721 22.1729 17.9944 22.1156 17.9339C22.0584 17.8734 21.9827 17.8336 21.9005 17.8207C21.8182 17.8078 21.734 17.8225 21.661 17.8625Z" fill="url(#paint0_linear_1_4162)"/>
<path opacity="0.35" d="M21.661 17.8625C21.3413 18.0301 21.0115 18.1777 20.6735 18.3045C19.5971 18.707 18.4571 18.9123 17.3079 18.9105C12.8715 18.9105 9.00697 15.8587 9.00697 11.9427C9.01274 11.4178 9.15849 10.904 9.42919 10.4543C9.69989 10.0045 10.0857 9.63521 10.5468 9.3844C6.5348 9.5526 5.50342 13.7344 5.50342 16.1841C5.50342 23.1097 11.8868 23.8126 13.2622 23.8126C14.1217 23.779 14.9734 23.6354 15.7964 23.3852C15.8374 23.3715 15.8784 23.3577 15.9192 23.3437C18.5022 22.45 20.7038 20.7035 22.1619 18.3918C22.2059 18.3211 22.2252 18.2378 22.2168 18.155C22.2085 18.0721 22.1729 17.9944 22.1156 17.9339C22.0584 17.8734 21.9827 17.8336 21.9005 17.8207C21.8182 17.8078 21.734 17.8225 21.661 17.8625Z" fill="url(#paint1_radial_1_4162)"/>
<path d="M9.91045 22.6326C9.07399 22.1127 8.34943 21.4315 7.77903 20.6287C7.12964 19.737 6.68296 18.7143 6.47024 17.6319C6.25753 16.5496 6.28392 15.4338 6.54757 14.3628C6.81123 13.2917 7.30577 12.2912 7.99659 11.4313C8.68741 10.5713 9.55781 9.87278 10.5469 9.38447C10.9951 9.14264 11.4951 9.0128 12.0043 9.00602C12.4722 9.00916 12.933 9.12049 13.3507 9.3313C13.7685 9.54212 14.1318 9.8467 14.4122 10.2212C14.791 10.7267 14.9997 11.3392 15.0083 11.9707C15.0086 11.951 17.3018 4.50781 7.50371 4.50781C3.38875 4.50781 3.25181e-05 8.41432 3.25181e-05 11.8405C-0.0167285 13.6542 0.371272 15.4488 1.13577 17.0936C2.38464 19.756 4.56734 21.8674 7.26974 23.0271C9.97215 24.1869 13.0062 24.3143 15.7964 23.3853C14.8193 23.6931 13.787 23.7852 12.7708 23.6553C11.7546 23.5253 10.7787 23.1764 9.91045 22.6326Z" fill="url(#paint2_linear_1_4162)"/>
<path opacity="0.41" d="M9.91045 22.6326C9.07399 22.1127 8.34943 21.4315 7.77903 20.6287C7.12964 19.737 6.68296 18.7143 6.47024 17.6319C6.25753 16.5496 6.28392 15.4338 6.54757 14.3628C6.81123 13.2917 7.30577 12.2912 7.99659 11.4313C8.68741 10.5713 9.55781 9.87278 10.5469 9.38447C10.9951 9.14264 11.4951 9.0128 12.0043 9.00602C12.4722 9.00916 12.933 9.12049 13.3507 9.3313C13.7685 9.54212 14.1318 9.8467 14.4122 10.2212C14.791 10.7267 14.9997 11.3392 15.0083 11.9707C15.0086 11.951 17.3018 4.50781 7.50371 4.50781C3.38875 4.50781 3.25181e-05 8.41432 3.25181e-05 11.8405C-0.0167285 13.6542 0.371272 15.4488 1.13577 17.0936C2.38464 19.756 4.56734 21.8674 7.26974 23.0271C9.97215 24.1869 13.0062 24.3143 15.7964 23.3853C14.8193 23.6931 13.787 23.7852 12.7708 23.6553C11.7546 23.5253 10.7787 23.1764 9.91045 22.6326Z" fill="url(#paint3_radial_1_4162)"/>
<path d="M14.2794 13.9554C14.2034 14.0538 13.9697 14.1895 13.9697 14.4864C13.9832 14.6267 14.0306 14.7616 14.1077 14.8796C14.1848 14.9975 14.2893 15.0951 14.4124 15.1638C15.7605 16.1047 18.3017 15.9779 18.3084 15.9779C19.3078 15.9746 20.288 15.703 21.1466 15.1916C22.013 14.6858 22.7321 13.9623 23.2325 13.0927C23.7329 12.2232 23.9973 11.238 23.9994 10.2347C24.0103 8.79316 23.6439 7.37379 22.9366 6.11759C20.9498 2.23462 16.661 1.58534e-07 11.9979 1.58534e-07C8.84447 -0.000512138 5.81768 1.2406 3.5724 3.45479C1.32713 5.66897 0.04394 8.67817 0.000488281 11.8313C0.0450533 8.40538 3.4499 5.63893 7.49729 5.63893C8.86435 5.65299 10.2106 5.97582 11.4353 6.58332C12.651 7.18696 13.6583 8.14061 14.3275 9.32154C14.7729 10.1762 15.0069 11.1252 15.01 12.0889C14.9615 12.7708 14.7067 13.4218 14.2794 13.9554Z" fill="url(#paint4_radial_1_4162)"/>
<path d="M14.2794 13.9554C14.2034 14.0538 13.9697 14.1895 13.9697 14.4864C13.9832 14.6267 14.0306 14.7616 14.1077 14.8796C14.1848 14.9975 14.2893 15.0951 14.4124 15.1638C15.7605 16.1047 18.3017 15.9779 18.3084 15.9779C19.3078 15.9746 20.288 15.703 21.1466 15.1916C22.013 14.6858 22.7321 13.9623 23.2325 13.0927C23.7329 12.2232 23.9973 11.238 23.9994 10.2347C24.0103 8.79316 23.6439 7.37379 22.9366 6.11759C20.9498 2.23462 16.661 1.58534e-07 11.9979 1.58534e-07C8.84447 -0.000512138 5.81768 1.2406 3.5724 3.45479C1.32713 5.66897 0.04394 8.67817 0.000488281 11.8313C0.0450533 8.40538 3.4499 5.63893 7.49729 5.63893C8.86435 5.65299 10.2106 5.97582 11.4353 6.58332C12.651 7.18696 13.6583 8.14061 14.3275 9.32154C14.7729 10.1762 15.0069 11.1252 15.01 12.0889C14.9615 12.7708 14.7067 13.4218 14.2794 13.9554Z" fill="url(#paint5_radial_1_4162)"/>
<defs>
<linearGradient id="paint0_linear_1_4162" x1="5.50342" y1="16.5985" x2="22.2223" y2="16.5985" gradientUnits="userSpaceOnUse">
<stop stop-color="#0C59A4"/>
<stop offset="1" stop-color="#114A8B"/>
</linearGradient>
<radialGradient id="paint1_radial_1_4162" cx="0" cy="0" r="1" gradientUnits="userSpaceOnUse" gradientTransform="translate(14.7379 16.7234) scale(8.94225 8.5047)">
<stop offset="0.71659" stop-opacity="0"/>
<stop offset="0.9459" stop-opacity="0.53"/>
<stop offset="1"/>
</radialGradient>
<linearGradient id="paint2_linear_1_4162" x1="14.3178" y1="9.34542" x2="3.87453" y2="20.7206" gradientUnits="userSpaceOnUse">
<stop stop-color="#1B9DE2"/>
<stop offset="0.16164" stop-color="#1595DF"/>
<stop offset="0.66749" stop-color="#0680D7"/>
<stop offset="1" stop-color="#0078D4"/>
</linearGradient>
<radialGradient id="paint3_radial_1_4162" cx="0" cy="0" r="1" gradientUnits="userSpaceOnUse" gradientTransform="translate(6.68486 18.6248) rotate(-81.464) scale(13.4283 10.8206)">
<stop offset="0.76293" stop-opacity="0"/>
<stop offset="0.9459" stop-opacity="0.5"/>
<stop offset="1"/>
</radialGradient>
<radialGradient id="paint4_radial_1_4162" cx="0" cy="0" r="1" gradientUnits="userSpaceOnUse" gradientTransform="translate(2.36561 4.38801) rotate(92.129) scale(18.9779 40.4198)">
<stop stop-color="#35C1F1"/>
<stop offset="0.11079" stop-color="#34C1ED"/>
<stop offset="0.23164" stop-color="#2FC2DF"/>
<stop offset="0.31446" stop-color="#2BC3D2"/>
<stop offset="0.67338" stop-color="#36C752"/>
</radialGradient>
<radialGradient id="paint5_radial_1_4162" cx="0" cy="0" r="1" gradientUnits="userSpaceOnUse" gradientTransform="translate(22.7315 7.27263) rotate(73.6747) scale(9.12542 7.45043)">
<stop stop-color="#66EB6E"/>
<stop offset="1" stop-color="#66EB6E" stop-opacity="0"/>
</radialGradient>
</defs>
</svg>
