<svg width="24" height="24" viewBox="0 0 24 24" fill="none" xmlns="http://www.w3.org/2000/svg">
<g clip-path="url(#clip0_1_4140)">
<path fill-rule="evenodd" clip-rule="evenodd" d="M24 10C24 15.5228 19.5228 20 14 20C11.7797 20 9.72845 19.2764 8.06913 18.0522L3.06066 23.0607C2.47487 23.6464 1.52513 23.6464 0.93934 23.0607C0.353553 22.4749 0.353553 21.5251 0.93934 20.9393L5.94781 15.9309C4.72359 14.2716 4 12.2203 4 10C4 4.47715 8.47715 0 14 0C19.5228 0 24 4.47715 24 10ZM9.18753 15.0833C9.14883 15.0333 9.10654 14.9852 9.06066 14.9393C9.01478 14.8935 8.96666 14.8512 8.91666 14.8125C7.72865 13.558 7 11.8641 7 10C7 6.13401 10.134 3 14 3C17.866 3 21 6.13401 21 10C21 13.866 17.866 17 14 17C12.1359 17 10.442 16.2714 9.18753 15.0833Z" fill="url(#paint0_linear_1_4140)"/>
<circle cx="14" cy="10" r="7" fill="url(#paint1_radial_1_4140)"/>
</g>
<defs>
<linearGradient id="paint0_linear_1_4140" x1="24" y1="-1.43051e-06" x2="5.17419e-07" y2="24" gradientUnits="userSpaceOnUse">
<stop stop-color="#EBECED"/>
<stop offset="1" stop-color="#D8DCDE"/>
</linearGradient>
<radialGradient id="paint1_radial_1_4140" cx="0" cy="0" r="1" gradientUnits="userSpaceOnUse" gradientTransform="translate(7 3) rotate(45) scale(19.799)">
<stop stop-color="#364090"/>
<stop offset="1" stop-color="#1F2B7F"/>
</radialGradient>
<clipPath id="clip0_1_4140">
<rect width="24" height="24" fill="white"/>
</clipPath>
</defs>
</svg>
