<svg width="24" height="24" viewBox="0 0 24 24" fill="none" xmlns="http://www.w3.org/2000/svg">
<g clip-path="url(#clip0_1_4170)">
<g filter="url(#filter0_d_1_4170)">
<path d="M0 5C0 4.44771 0.447715 4 1 4H22C22.5523 4 23 4.44772 23 5V19C23 21.2091 21.2091 23 19 23H4C1.79086 23 0 21.2091 0 19V5Z" fill="url(#paint0_linear_1_4170)"/>
</g>
<g filter="url(#filter1_d_1_4170)">
<path d="M5 1.70711C5 1.25435 5.17986 0.820145 5.5 0.5C5.82014 0.179855 6.25435 0 6.70711 0H7V5C7 5.55228 6.55228 6 6 6C5.44772 6 5 5.55228 5 5V1.70711Z" fill="url(#paint1_linear_1_4170)"/>
<path d="M18 1.70711C18 1.25435 17.8201 0.820145 17.5 0.5C17.1799 0.179855 16.7456 0 16.2929 0H16V5C16 5.55228 16.4477 6 17 6C17.5523 6 18 5.55228 18 5V1.70711Z" fill="url(#paint2_linear_1_4170)"/>
<g filter="url(#filter2_i_1_4170)">
<rect x="7" width="9" height="2" fill="url(#paint3_linear_1_4170)"/>
</g>
</g>
<rect x="7" y="9" width="4" height="4" fill="#F25022"/>
<rect x="7" y="14" width="4" height="4" fill="#00A4EF"/>
<rect x="12" y="9" width="4" height="4" fill="#7FBA00"/>
<rect x="12" y="14" width="4" height="4" fill="#FFB900"/>
</g>
<defs>
<filter id="filter0_d_1_4170" x="-1" y="3.5" width="25" height="21" filterUnits="userSpaceOnUse" color-interpolation-filters="sRGB">
<feFlood flood-opacity="0" result="BackgroundImageFix"/>
<feColorMatrix in="SourceAlpha" type="matrix" values="0 0 0 0 0 0 0 0 0 0 0 0 0 0 0 0 0 0 127 0" result="hardAlpha"/>
<feOffset dy="0.5"/>
<feGaussianBlur stdDeviation="0.5"/>
<feColorMatrix type="matrix" values="0 0 0 0 0 0 0 0 0 0 0 0 0 0 0 0 0 0 0.2 0"/>
<feBlend mode="normal" in2="BackgroundImageFix" result="effect1_dropShadow_1_4170"/>
<feBlend mode="normal" in="SourceGraphic" in2="effect1_dropShadow_1_4170" result="shape"/>
</filter>
<filter id="filter1_d_1_4170" x="4" y="-0.5" width="15" height="8" filterUnits="userSpaceOnUse" color-interpolation-filters="sRGB">
<feFlood flood-opacity="0" result="BackgroundImageFix"/>
<feColorMatrix in="SourceAlpha" type="matrix" values="0 0 0 0 0 0 0 0 0 0 0 0 0 0 0 0 0 0 127 0" result="hardAlpha"/>
<feOffset dy="0.5"/>
<feGaussianBlur stdDeviation="0.5"/>
<feColorMatrix type="matrix" values="0 0 0 0 0 0 0 0 0 0 0 0 0 0 0 0 0 0 0.2 0"/>
<feBlend mode="normal" in2="BackgroundImageFix" result="effect1_dropShadow_1_4170"/>
<feBlend mode="normal" in="SourceGraphic" in2="effect1_dropShadow_1_4170" result="shape"/>
</filter>
<filter id="filter2_i_1_4170" x="7" y="-0.25" width="9" height="2.25" filterUnits="userSpaceOnUse" color-interpolation-filters="sRGB">
<feFlood flood-opacity="0" result="BackgroundImageFix"/>
<feBlend mode="normal" in="SourceGraphic" in2="BackgroundImageFix" result="shape"/>
<feColorMatrix in="SourceAlpha" type="matrix" values="0 0 0 0 0 0 0 0 0 0 0 0 0 0 0 0 0 0 127 0" result="hardAlpha"/>
<feMorphology radius="0.25" operator="dilate" in="SourceAlpha" result="effect1_innerShadow_1_4170"/>
<feOffset dy="-0.25"/>
<feGaussianBlur stdDeviation="0.25"/>
<feComposite in2="hardAlpha" operator="arithmetic" k2="-1" k3="1"/>
<feColorMatrix type="matrix" values="0 0 0 0 0 0 0 0 0 0 0 0 0 0 0 0 0 0 0.25 0"/>
<feBlend mode="normal" in2="shape" result="effect1_innerShadow_1_4170"/>
</filter>
<linearGradient id="paint0_linear_1_4170" x1="11.5" y1="4" x2="11.5" y2="23" gradientUnits="userSpaceOnUse">
<stop stop-color="#FDFDFD"/>
<stop offset="1" stop-color="#DFDFDF"/>
</linearGradient>
<linearGradient id="paint1_linear_1_4170" x1="11.5" y1="0" x2="11.5" y2="6" gradientUnits="userSpaceOnUse">
<stop stop-color="#C4C4C4"/>
<stop offset="0.0001" stop-color="#3BDBFE"/>
<stop offset="1" stop-color="#0290D0"/>
</linearGradient>
<linearGradient id="paint2_linear_1_4170" x1="11.5" y1="0" x2="11.5" y2="6" gradientUnits="userSpaceOnUse">
<stop stop-color="#C4C4C4"/>
<stop offset="0.0001" stop-color="#3BDBFE"/>
<stop offset="1" stop-color="#0290D0"/>
</linearGradient>
<linearGradient id="paint3_linear_1_4170" x1="11.5" y1="0" x2="11.5" y2="2" gradientUnits="userSpaceOnUse">
<stop stop-color="#1EB5FD"/>
<stop offset="1" stop-color="#048FF2"/>
</linearGradient>
<clipPath id="clip0_1_4170">
<rect width="24" height="24" fill="white"/>
</clipPath>
</defs>
</svg>
