<svg width="24" height="24" viewBox="0 0 24 24" fill="none" xmlns="http://www.w3.org/2000/svg">
<rect y="7" width="18" height="16" rx="1" fill="url(#paint0_linear_1_4143)"/>
<path d="M6 2C6 1.44772 6.44772 1 7 1H23C23.5523 1 24 1.44772 24 2V16C24 16.5523 23.5523 17 23 17H7C6.44772 17 6 16.5523 6 16V2Z" fill="url(#paint1_linear_1_4143)" fill-opacity="0.9"/>
<path d="M6.25 2C6.25 1.58579 6.58579 1.25 7 1.25H23C23.4142 1.25 23.75 1.58579 23.75 2V16C23.75 16.4142 23.4142 16.75 23 16.75H7C6.58579 16.75 6.25 16.4142 6.25 16V2Z" stroke="black" stroke-opacity="0.0578" stroke-width="0.5"/>
<mask id="mask0_1_4143" style="mask-type:alpha" maskUnits="userSpaceOnUse" x="6" y="1" width="18" height="16">
<path d="M6 2C6 1.44772 6.44772 1 7 1H23C23.5523 1 24 1.44772 24 2V16C24 16.5523 23.5523 17 23 17H7C6.44772 17 6 16.5523 6 16V2Z" fill="black"/>
</mask>
<g mask="url(#mask0_1_4143)">
<rect y="7" width="18" height="16" rx="1" fill="url(#paint2_linear_1_4143)" fill-opacity="0.4"/>
</g>
<defs>
<linearGradient id="paint0_linear_1_4143" x1="9" y1="7" x2="9" y2="23" gradientUnits="userSpaceOnUse">
<stop stop-color="#454341"/>
<stop offset="1" stop-color="#202020"/>
</linearGradient>
<linearGradient id="paint1_linear_1_4143" x1="15" y1="1" x2="15" y2="17" gradientUnits="userSpaceOnUse">
<stop stop-color="#FAFBFB"/>
<stop offset="1" stop-color="#D4D7DB"/>
</linearGradient>
<linearGradient id="paint2_linear_1_4143" x1="9" y1="7" x2="9" y2="23" gradientUnits="userSpaceOnUse">
<stop stop-color="#454341"/>
<stop offset="1" stop-color="#202020"/>
</linearGradient>
</defs>
</svg>
