<svg width="17" height="18" viewBox="0 0 17 18" fill="none" xmlns="http://www.w3.org/2000/svg">
<path d="M14.2192 8.80389C14.2192 8.03802 13.5963 7.41519 12.8305 7.41519H12.1361V5.33215C12.1361 3.41783 10.5787 1.86041 8.6644 1.86041C6.75008 1.86041 5.19266 3.41783 5.19266 5.33215V7.41519H4.49831C3.73245 7.41519 3.10962 8.03802 3.10962 8.80389V14.3587C3.10962 15.1245 3.73245 15.7474 4.49831 15.7474H12.8305C13.5963 15.7474 14.2192 15.1245 14.2192 14.3587V8.80389ZM6.58136 5.33215C6.58136 4.1837 7.51595 3.24911 8.6644 3.24911C9.81285 3.24911 10.7474 4.1837 10.7474 5.33215V7.41519H6.58136V5.33215Z" fill="#E1E1E1"/>
</svg>
