<svg width="277" height="53" viewBox="0 0 277 53" fill="none" xmlns="http://www.w3.org/2000/svg">
<path d="M20.425 48H0V27.575H20.425V48ZM43 48H22.575V27.575H43V48ZM20.425 25.425H0V5H20.425V25.425ZM43 25.425H22.575V5H43V25.425Z" fill="white"/>
<path d="M93.07 14.57L86.245 39H80.47L75.885 21.605L71.09 39L65.35 39.035L58.77 14.57H64.02L68.325 33.54L73.295 14.57H78.755L83.445 33.435L87.785 14.57H93.07ZM99.1045 17.3C98.2412 17.3 97.5178 17.0317 96.9345 16.495C96.3745 15.935 96.0945 15.2467 96.0945 14.43C96.0945 13.6133 96.3745 12.9367 96.9345 12.4C97.5178 11.84 98.2412 11.56 99.1045 11.56C99.9678 11.56 100.679 11.84 101.239 12.4C101.823 12.9367 102.114 13.6133 102.114 14.43C102.114 15.2467 101.823 15.935 101.239 16.495C100.679 17.0317 99.9678 17.3 99.1045 17.3ZM101.519 19.61V39H96.6195V19.61H101.519ZM117.456 19.33C119.766 19.33 121.632 20.065 123.056 21.535C124.479 22.9817 125.191 25.0117 125.191 27.625V39H120.291V28.29C120.291 26.75 119.906 25.5717 119.136 24.755C118.366 23.915 117.316 23.495 115.986 23.495C114.632 23.495 113.559 23.915 112.766 24.755C111.996 25.5717 111.611 26.75 111.611 28.29V39H106.711V19.61H111.611V22.025C112.264 21.185 113.092 20.5317 114.096 20.065C115.122 19.575 116.242 19.33 117.456 19.33ZM128.94 29.235C128.94 27.275 129.325 25.5367 130.095 24.02C130.889 22.5033 131.962 21.3367 133.315 20.52C134.669 19.7033 136.174 19.295 137.83 19.295C139.09 19.295 140.292 19.575 141.435 20.135C142.579 20.6717 143.489 21.395 144.165 22.305V13.1H149.135V39H144.165V36.13C143.559 37.0867 142.707 37.8567 141.61 38.44C140.514 39.0233 139.242 39.315 137.795 39.315C136.162 39.315 134.669 38.895 133.315 38.055C131.962 37.215 130.889 36.0367 130.095 34.52C129.325 32.98 128.94 31.2183 128.94 29.235ZM144.2 29.305C144.2 28.115 143.967 27.1 143.5 26.26C143.034 25.3967 142.404 24.7433 141.61 24.3C140.817 23.8333 139.965 23.6 139.055 23.6C138.145 23.6 137.305 23.8217 136.535 24.265C135.765 24.7083 135.135 25.3617 134.645 26.225C134.179 27.065 133.945 28.0683 133.945 29.235C133.945 30.4017 134.179 31.4283 134.645 32.315C135.135 33.1783 135.765 33.8433 136.535 34.31C137.329 34.7767 138.169 35.01 139.055 35.01C139.965 35.01 140.817 34.7883 141.61 34.345C142.404 33.8783 143.034 33.225 143.5 32.385C143.967 31.5217 144.2 30.495 144.2 29.305ZM162.881 39.315C161.014 39.315 159.334 38.9067 157.841 38.09C156.348 37.25 155.169 36.0717 154.306 34.555C153.466 33.0383 153.046 31.2883 153.046 29.305C153.046 27.3217 153.478 25.5717 154.341 24.055C155.228 22.5383 156.429 21.3717 157.946 20.555C159.463 19.715 161.154 19.295 163.021 19.295C164.888 19.295 166.579 19.715 168.096 20.555C169.613 21.3717 170.803 22.5383 171.666 24.055C172.553 25.5717 172.996 27.3217 172.996 29.305C172.996 31.2883 172.541 33.0383 171.631 34.555C170.744 36.0717 169.531 37.25 167.991 38.09C166.474 38.9067 164.771 39.315 162.881 39.315ZM162.881 35.045C163.768 35.045 164.596 34.835 165.366 34.415C166.159 33.9717 166.789 33.3183 167.256 32.455C167.723 31.5917 167.956 30.5417 167.956 29.305C167.956 27.4617 167.466 26.05 166.486 25.07C165.529 24.0667 164.351 23.565 162.951 23.565C161.551 23.565 160.373 24.0667 159.416 25.07C158.483 26.05 158.016 27.4617 158.016 29.305C158.016 31.1483 158.471 32.5717 159.381 33.575C160.314 34.555 161.481 35.045 162.881 35.045ZM203.82 19.61L198.15 39H192.865L189.33 25.455L185.795 39H180.475L174.77 19.61H179.74L183.17 34.38L186.88 19.61H192.06L195.7 34.345L199.13 19.61H203.82ZM214.242 39.315C212.655 39.315 211.232 39.035 209.972 38.475C208.712 37.8917 207.708 37.11 206.962 36.13C206.238 35.15 205.842 34.065 205.772 32.875H210.707C210.8 33.6217 211.162 34.24 211.792 34.73C212.445 35.22 213.25 35.465 214.207 35.465C215.14 35.465 215.863 35.2783 216.377 34.905C216.913 34.5317 217.182 34.0533 217.182 33.47C217.182 32.84 216.855 32.3733 216.202 32.07C215.572 31.7433 214.557 31.3933 213.157 31.02C211.71 30.67 210.52 30.3083 209.587 29.935C208.677 29.5617 207.883 28.99 207.207 28.22C206.553 27.45 206.227 26.4117 206.227 25.105C206.227 24.0317 206.53 23.0517 207.137 22.165C207.767 21.2783 208.653 20.5783 209.797 20.065C210.963 19.5517 212.328 19.295 213.892 19.295C216.202 19.295 218.045 19.8783 219.422 21.045C220.798 22.1883 221.557 23.74 221.697 25.7H217.007C216.937 24.93 216.61 24.3233 216.027 23.88C215.467 23.4133 214.708 23.18 213.752 23.18C212.865 23.18 212.177 23.3433 211.687 23.67C211.22 23.9967 210.987 24.4517 210.987 25.035C210.987 25.6883 211.313 26.19 211.967 26.54C212.62 26.8667 213.635 27.205 215.012 27.555C216.412 27.905 217.567 28.2667 218.477 28.64C219.387 29.0133 220.168 29.5967 220.822 30.39C221.498 31.16 221.848 32.1867 221.872 33.47C221.872 34.59 221.557 35.5933 220.927 36.48C220.32 37.3667 219.433 38.0667 218.267 38.58C217.123 39.07 215.782 39.315 214.242 39.315ZM233.779 18V13.485H242.214V39H237.174V18H233.779ZM246.809 18V13.485H255.244V39H250.204V18H246.809ZM267.61 14.185C269.033 14.185 270.305 14.5 271.425 15.13C272.568 15.76 273.455 16.6467 274.085 17.79C274.715 18.91 275.03 20.1933 275.03 21.64C275.03 23.0633 274.715 24.335 274.085 25.455C273.455 26.575 272.568 27.4617 271.425 28.115C270.305 28.745 269.033 29.06 267.61 29.06C266.187 29.06 264.903 28.745 263.76 28.115C262.64 27.4617 261.753 26.575 261.1 25.455C260.47 24.335 260.155 23.0633 260.155 21.64C260.155 20.1933 260.47 18.91 261.1 17.79C261.753 16.6467 262.64 15.76 263.76 15.13C264.903 14.5 266.187 14.185 267.61 14.185ZM267.61 27.275C269.29 27.275 270.632 26.7617 271.635 25.735C272.662 24.685 273.175 23.32 273.175 21.64C273.175 19.9367 272.662 18.5717 271.635 17.545C270.632 16.495 269.29 15.97 267.61 15.97C265.93 15.97 264.588 16.495 263.585 17.545C262.582 18.5717 262.08 19.9367 262.08 21.64C262.08 23.3433 262.582 24.7083 263.585 25.735C264.588 26.7617 265.93 27.275 267.61 27.275ZM270.9 20.24C270.9 20.7533 270.772 21.1967 270.515 21.57C270.282 21.9433 269.943 22.2233 269.5 22.41L271.32 25.28H268.59L267.085 22.655H266.875V25.28H264.53V17.79H268.205C269.022 17.79 269.675 18.0233 270.165 18.49C270.655 18.9333 270.9 19.5167 270.9 20.24ZM266.84 20.905H267.96C268.123 20.905 268.263 20.8583 268.38 20.765C268.497 20.6717 268.555 20.5317 268.555 20.345C268.555 19.995 268.357 19.82 267.96 19.82H266.84V20.905Z" fill="white"/>
</svg>
